<svg width="1024" height="1024" viewBox="0 0 1024 1024" fill="none" xmlns="http://www.w3.org/2000/svg">
<circle cx="512" cy="512" r="512" fill="#FCA24F"/>
<path d="M122.312 594.632V505.544H99.784V483.272H77V429H107.208V473.8H129.992V496.072H145.352V473.8H168.136V429H198.6V483.272H175.56V505.544H153.032V594.632H122.312ZM217 594.632V473.8H239.784V451.528H262.312V429H293.032V451.528H315.56V473.8H338.6V594.632H308.136V550.088H247.208V594.632H217ZM247.208 518.088H308.136V483.272H285.352V461H269.992V483.272H247.208V518.088ZM390.034 594.632V572.616H367.25V451.528H390.034V429H465.81V451.528H488.85V505.544H458.386V461H397.458V562.888H458.386V518.088H488.85V572.616H465.81V594.632H390.034ZM520 594.632V451.528H542.784V429H618.56V451.528H641.6V527.56H618.56V550.088H607.552V562.888H630.08V594.632H600.128V572.616H576.832V550.088H550.208V594.632H520ZM550.208 518.088H611.136V461H550.208V518.088ZM695.534 594.632V572.616H672.75V429H702.958V562.888H763.886V429H794.35V572.616H771.31V594.632H695.534ZM825.5 594.632V451.528H848.284V429H878.492V461H855.708V496.072H870.812V473.8H893.852V451.528H916.636V429H947.1V461H924.06V483.272H901.532V505.544H878.492V518.088H901.532V540.616H924.06V562.888H947.1V594.632H916.636V572.616H893.852V550.088H870.812V527.56H855.708V594.632H825.5Z" fill="#21260E"/>
</svg>
